# xmcd
#
# Track frame offsets: 
#        150
#        16682
#        39375
#        65250
#        87325
#        106117
#        120737
#        132065
#        146737
#        167807
#        178580
#        192045
#        240840
#
# Disc length: 3400 seconds
#
# Revision: 2
# Processed by: cddbd v1.5.2PL0 Copyright (c) Steve Scherf et al.
# Submitted via: ExactAudioCopy v1.0b1
#
DISCID=9c0d460d
DTITLE=Various Artist - Stax Revue Live At The 5-4 Ballroom
DYEAR=1991
DGENRE=Soul
TTITLE0=Booker T. and The MG's - Green Onions
TTITLE1=Booker T. and The MG's - You Can't Sit Down
TTITLE2=Booker T. and The MG's - Summertime
TTITLE3=Booker T. and The MG's - Soul Twist
TTITLE4=The Mad Lads - Don't Have To Shop Around
TTITLE5=The Astors - Candy
TTITLE6=The Mar-Keys - Last Night
TTITLE7=William Bell - Any Other Way
TTITLE8=William Bell - You Don't Miss Your Water
TTITLE9=Carla Thomas - Every Ounce Of Strength
TTITLE10=Booker T. and The MG's - Boot-Leg
TTITLE11=Rufus Thomas - Do The Dog
TTITLE12=Rufus Thomas - Walking The Dog
EXTD=
EXTT0=
EXTT1=
EXTT2=
EXTT3=
EXTT4=
EXTT5=
EXTT6=
EXTT7=
EXTT8=
EXTT9=
EXTT10=
EXTT11=
EXTT12=
PLAYORDER=
